<?xml version="1.0" encoding="UTF-8" standalone="no"?>
<!DOCTYPE svg PUBLIC "-//W3C//DTD SVG 1.1//EN" "http://www.w3.org/Graphics/SVG/1.1/DTD/svg11.dtd">

<!-- Created with Vectornator (http://vectornator.io/) -->
<svg height="100%" stroke-miterlimit="10" style="fill-rule:nonzero;clip-rule:evenodd;stroke-linecap:round;stroke-linejoin:round;" version="1.1" viewBox="0 0 16 16" width="100%" xml:space="preserve" xmlns="http://www.w3.org/2000/svg" xmlns:vectornator="http://vectornator.io" xmlns:xlink="http://www.w3.org/1999/xlink">
<metadata>
<vectornator:setting key="IsTimeLapseWatermarkDisabled" value="false"/>
<vectornator:setting key="UndoHistoryDisabled" value="true"/>
<vectornator:setting key="VNDimensionsVisible" value="true"/>
<vectornator:setting key="VNSnapToGuides" value="true"/>
<vectornator:setting key="WDCMYKEnabledKey" value="false"/>
<vectornator:setting key="WDDisplayWhiteBackground" value="false"/>
<vectornator:setting key="WDDynamicGuides" value="false"/>
<vectornator:setting key="WDGuidesVisible" value="true"/>
<vectornator:setting key="WDIsolateActiveLayer" value="false"/>
<vectornator:setting key="WDOutlineMode" value="false"/>
<vectornator:setting key="WDRulersVisible" value="true"/>
<vectornator:setting key="WDSnapToEdges" value="false"/>
<vectornator:setting key="WDSnapToGrid" value="false"/>
<vectornator:setting key="WDSnapToPoints" value="false"/>
<vectornator:setting key="WDUnits" value="Points"/>
</metadata>
<defs/>
<g id="Untitled" vectornator:layerName="Untitled">
<path d="M6.04289 9.2867C6.04289 9.0247 6.26111 8.8123 6.53029 8.8123L9.45467 8.8123C9.72385 8.8123 9.94206 9.0247 9.94206 9.2867C9.94206 9.5487 9.72385 9.76109 9.45467 9.76109L6.53029 9.76109C6.26111 9.76109 6.04289 9.5487 6.04289 9.2867ZM3.11851 5.07598C3.11851 3.84066 4.32238 2.89661 5.58474 3.01142C7.18642 3.15692 8.79854 3.15691 10.4002 3.01142C11.6626 2.89661 12.8664 3.84066 12.8664 5.07598L12.8664 6.17373C12.8747 6.6073 12.559 6.98283 12.1207 7.06084C11.297 7.20031 9.83971 7.38912 7.99248 7.38912C6.14525 7.38912 4.68793 7.19937 3.86423 7.06084C3.42597 6.98283 3.11029 6.60729 3.11851 6.17373L3.11851 5.07598ZM7.54602 4.29133C7.46896 4.27857 7.39029 4.30257 7.33449 4.35585L6.43768 5.20976C5.8277 5.17437 5.21932 5.11645 4.61385 5.03613C4.48345 5.02352 4.36615 5.11353 4.34832 5.23988C4.33048 5.36624 4.4185 5.4837 4.54756 5.50578C5.0837 5.57789 5.7485 5.64715 6.51664 5.68889C6.58505 5.69265 6.65193 5.6682 6.70088 5.62153L7.43587 4.92322L8.26152 6.54565C8.29681 6.61472 8.36441 6.66277 8.44275 6.67447C8.52109 6.68617 8.60039 6.66007 8.65534 6.60447L9.56384 5.68415C10.1905 5.64794 10.8154 5.58843 11.4374 5.50578C11.5665 5.4837 11.6545 5.36624 11.6366 5.23988C11.6188 5.11353 11.5015 5.02352 11.3711 5.03613C10.8467 5.10634 10.1945 5.1737 9.44102 5.21545C9.37967 5.21877 9.32187 5.24453 9.2792 5.28756L8.54421 6.03236L7.72343 4.41942C7.68871 4.35159 7.62278 4.30399 7.54602 4.29133Z" fill="#000000" fill-rule="evenodd" opacity="1" stroke="none"/>
<path d="M8.50534 1.31602C8.89755 1.15641 9.08877 0.831033 8.97156 0.522703C8.85434 0.214373 8.45791-2.53079e-05 8.00502-2.5332e-05C7.55213-2.5332e-05 7.15571 0.214373 7.03849 0.522703C6.92128 0.831033 7.1125 1.15641 7.50471 1.31602L7.50471 2.11578L5.50345 2.11578C3.01661 2.11578 1.00063 3.53669 1.00063 5.28947L1.00063 5.64211C0.447996 5.64211 2.99185e-08 5.95786 7.82311e-08 6.34737L7.82311e-08 7.7579C1.37873e-07 8.1474 0.447997 8.46316 1.00063 8.46316L1.00063 9.16843C1.00063 9.94744 1.89662 10.579 3.00188 10.579L13.0082 10.579C14.1134 10.579 15.0094 9.94744 15.0094 9.16843L15.0094 8.46316C15.5621 8.46316 16.01 8.1474 16.01 7.7579L16.01 6.34737C16.01 5.95786 15.5621 5.64211 15.0094 5.64211L15.0094 5.28947C15.0094 3.53669 12.9934 2.11578 10.5066 2.11578L8.50534 2.11578L8.50534 1.31602ZM14.0088 5.28947L14.0088 9.16843C14.0088 9.55793 13.5608 9.87369 13.0082 9.87369L3.00188 9.87369C2.44925 9.87369 2.00126 9.55793 2.00126 9.16843L2.00126 5.28947C2.00126 3.9262 3.56924 2.82105 5.50345 2.82105L10.5066 2.82105C12.4408 2.82105 14.0088 3.9262 14.0088 5.28947Z" fill="#000000" fill-rule="evenodd" opacity="1" stroke="none"/>
<path d="M3.9434 11.1666C3.91041 11.1584 3.95484 11.1153 3.92914 11.1067C3.80863 11.0666 3.66153 11.1211 3.53001 11.2038" fill="none" fill-rule="evenodd" opacity="1" stroke="#000000" stroke-linecap="round" stroke-linejoin="round" stroke-width="0.2"/>
<path d="M3.24197 11.4489C3.01961 11.7055 2.93666 12.0651 3.01961 12.3565" fill="none" fill-rule="evenodd" opacity="1" stroke="#000000" stroke-linecap="round" stroke-linejoin="round" stroke-width="0.2"/>
<path d="M4.19431 11.0497C3.99353 11.0032 3.69743 10.9307 3.52995 11.0982" fill="none" fill-rule="evenodd" opacity="1" stroke="#000000" stroke-linecap="round" stroke-linejoin="round" stroke-width="0.2"/>
<path d="M2.48066 11.1894C2.57074 11.2495 2.83973 11.3971 2.88555 11.5116C2.93575 11.6371 2.4297 11.6545 2.3495 11.5943" fill="none" fill-rule="evenodd" opacity="1" stroke="#000000" stroke-linecap="round" stroke-linejoin="round" stroke-width="0.2"/>
<path d="M1.70281 11.0586C1.6771 11.11 1.58783 11.3765 1.59729 11.3671" fill="none" fill-rule="evenodd" opacity="1" stroke="#000000" stroke-linecap="round" stroke-linejoin="round" stroke-width="0.1"/>
<path d="M1.62434 11.2426C1.64547 11.2547 1.83249 11.232 1.81644 11.248" fill="none" fill-rule="evenodd" opacity="1" stroke="#000000" stroke-linecap="round" stroke-linejoin="round" stroke-width="0.1"/>
<path d="M1.88678 11.0749C1.85875 11.0795 1.77732 11.3167 1.75962 11.3698" fill="none" fill-rule="evenodd" opacity="1" stroke="#000000" stroke-linecap="round" stroke-linejoin="round" stroke-width="0.1"/>
<path d="M1.9923 11.3265C1.98769 11.3473 1.91961 11.5011 1.89761 11.4131" fill="none" fill-rule="evenodd" opacity="1" stroke="#000000" stroke-linecap="round" stroke-linejoin="round" stroke-width="0.1"/>
<path d="M2.03289 11.175C2.01215 11.1888 2.01015 11.1858 2.03289 11.1858" fill="none" fill-rule="evenodd" opacity="1" stroke="#000000" stroke-linecap="round" stroke-linejoin="round" stroke-width="0.1"/>
<path d="M8.72437 10.7909C8.72437 10.7888 8.82987 11.1636 8.84008 11.2538C8.87972 11.6039 8.97121 11.993 8.97121 12.3414" fill="none" fill-rule="evenodd" opacity="1" stroke="#000000" stroke-linecap="round" stroke-linejoin="round" stroke-width="0.2"/>
<path d="M8.80922 11.4852C9.09492 11.4444 9.35727 11.363 9.65002 11.3386C9.692 11.3351 10.1368 11.2734 10.1283 11.2692" fill="none" fill-rule="evenodd" opacity="1" stroke="#000000" stroke-linecap="round" stroke-linejoin="round" stroke-width="0.2"/>
<path d="M9.91999 10.6984C9.97718 10.9843 9.96796 12.3943 10.082 12.3182" fill="none" fill-rule="evenodd" opacity="1" stroke="#000000" stroke-linecap="round" stroke-linejoin="round" stroke-width="0.2"/>
<path d="M11.1465 11.3C10.8726 11.3685 10.5109 12.1087 10.7145 12.3337C10.9546 12.5991 11.4597 11.3031 11.3239 11.2692C11.1898 11.2357 11.3328 11.6665 11.3393 11.6857C11.4235 11.9322 11.5147 12.2057 11.8098 12.0483" fill="none" fill-rule="evenodd" opacity="1" stroke="#000000" stroke-linecap="round" stroke-linejoin="round" stroke-width="0.2"/>
<path d="M12.1492 11.2846C12.0723 11.3923 12.0692 12.0994 12.2032 12.002C12.3978 11.8605 12.5661 11.1279 12.8666 11.1689C13.0428 11.1929 12.6839 12.3187 13.0749 11.9711" fill="none" fill-rule="evenodd" opacity="1" stroke="#000000" stroke-linecap="round" stroke-linejoin="round" stroke-width="0.2"/>
<path d="M13.5223 10.7755C13.6069 11.0293 13.6846 11.6027 13.6303 11.9017C13.6173 11.9733 13.5379 11.7855 13.476 11.7474C13.3999 11.7006 13.3173 11.6888 13.2446 11.7551C13.1861 11.8086 13.1591 11.928 13.1829 12.002C13.2705 12.2747 13.7189 11.9379 13.8385 11.8631" fill="none" fill-rule="evenodd" opacity="1" stroke="#000000" stroke-linecap="round" stroke-linejoin="round" stroke-width="0.2"/>
<path d="M14.1625 11.3386C14.1175 11.2635 14.4625 11.5692 14.5328 11.6394" fill="none" fill-rule="evenodd" opacity="1" stroke="#000000" stroke-linecap="round" stroke-linejoin="round" stroke-width="0.2"/>
<path d="M14.8028 11.2383C14.5115 11.44 14.1893 11.8062 14.1085 12.1563" fill="none" fill-rule="evenodd" opacity="1" stroke="#000000" stroke-linecap="round" stroke-linejoin="round" stroke-width="0.2"/>
<path d="M9.99713 12.5111C10.0234 12.4584 10.0707 12.91 10.0743 12.9585C10.0834 13.0817 10.3531 13.4125 10.2517 13.5139C10.209 13.5566 10.2221 13.3886 10.2208 13.375C10.2123 13.281 10.1006 13.1314 10.0357 13.0665C9.87794 12.9087 9.65848 13.0337 9.58831 13.213C9.44034 13.5912 10.2517 13.6679 10.3211 13.4136" fill="none" fill-rule="evenodd" opacity="1" stroke="#000000" stroke-linecap="round" stroke-linejoin="round" stroke-width="0.2"/>
<path d="M11.0153 12.6654C10.8941 12.726 10.8923 12.7141 10.7916 12.8273C10.3626 13.31 11.1478 13.0694 11.2853 12.7194C11.3022 12.6763 11.3283 12.5977 11.2853 12.5805C11.2656 12.5726 11.239 12.5814 11.2236 12.5959C10.9661 12.8383 11.0406 13.2254 11.4164 13.159" fill="none" fill-rule="evenodd" opacity="1" stroke="#000000" stroke-linecap="round" stroke-linejoin="round" stroke-width="0.2"/>
<path d="M11.7558 12.8428C11.6929 12.9215 11.7059 13.0966 11.6864 13.1976C11.6805 13.2283 11.6746 13.3055 11.7019 13.2902C11.8408 13.212 12.1249 12.485 12.3498 12.6499C12.5173 12.7728 12.2299 13.2722 12.5658 13.1976" fill="none" fill-rule="evenodd" opacity="1" stroke="#000000" stroke-linecap="round" stroke-linejoin="round" stroke-width="0.2"/>
<path d="M13.5608 12.3491C13.5527 12.3248 13.5075 12.4852 13.4914 12.5265C13.4619 12.6022 13.2813 12.9624 13.3757 13.0433C13.3759 13.0434 13.1401 12.6713 12.9592 12.997C12.8136 13.2591 13.1662 13.2352 13.3063 13.213" fill="none" fill-rule="evenodd" opacity="1" stroke="#000000" stroke-linecap="round" stroke-linejoin="round" stroke-width="0.2"/>
<path d="M13.9388 12.5728C14.0218 12.5728 14.0287 12.7067 14.0468 12.7579C14.0877 12.8739 14.2169 12.9128 14.2859 13.0048" fill="none" fill-rule="evenodd" opacity="1" stroke="#000000" stroke-linecap="round" stroke-linejoin="round" stroke-width="0.2"/>
<path d="M14.4402 12.6268C14.386 12.7261 13.9139 13.3433 14.0391 13.4059" fill="none" fill-rule="evenodd" opacity="1" stroke="#000000" stroke-linecap="round" stroke-linejoin="round" stroke-width="0.2"/>
<path d="M10.2671 14.077C10.1893 13.9214 9.85074 14.2734 9.812 14.3315C9.5867 14.6695 9.60373 14.9057 9.60373 15.2649" fill="none" fill-rule="evenodd" opacity="1" stroke="#000000" stroke-linecap="round" stroke-linejoin="round" stroke-width="0.2"/>
<path d="M9.26433 14.6863C9.42161 14.7126 9.86176 14.5734 9.91999 14.7481" fill="none" fill-rule="evenodd" opacity="1" stroke="#000000" stroke-linecap="round" stroke-linejoin="round" stroke-width="0.2"/>
<path d="M10.8456 14.4781C11.0154 14.4781 10.8611 14.8174 10.8611 14.9872C10.8611 15.0207 10.8368 15.1437 10.8765 15.1569C10.9448 15.1797 10.8777 15.0124 10.8688 14.9409" fill="none" fill-rule="evenodd" opacity="1" stroke="#000000" stroke-linecap="round" stroke-linejoin="round" stroke-width="0.2"/>
<path d="M10.9073 13.969L10.8765 13.9458L10.8611 13.9381L10.8456 13.9458L10.8533 13.9844L10.8842 13.9921L10.8842 13.9921" fill="none" fill-rule="evenodd" opacity="1" stroke="#000000" stroke-linecap="round" stroke-linejoin="round" stroke-width="0.2"/>
<path d="M11.6556 14.5475C11.495 14.5475 11.6524 15.2013 11.6864 15.1877C11.7499 15.1623 11.9214 14.5267 11.9795 14.4395C12.0175 14.3825 12.1219 14.261 12.1492 14.3238C12.2168 14.4792 11.972 15.3419 12.2572 15.0566" fill="none" fill-rule="evenodd" opacity="1" stroke="#000000" stroke-linecap="round" stroke-linejoin="round" stroke-width="0.2"/>
<path d="M12.7741 14.3932C12.3099 14.2385 12.4962 14.8536 12.6892 14.8098C12.8699 14.7687 12.9408 14.4767 12.9669 14.3315C12.9774 14.2731 12.9603 14.099 12.9823 14.1541C13.1136 14.4824 12.7446 16.3086 12.5504 14.9486" fill="none" fill-rule="evenodd" opacity="1" stroke="#000000" stroke-linecap="round" stroke-linejoin="round" stroke-width="0.2"/>
<path d="M13.5377 14.4626C13.5476 14.4655 14.1947 14.7423 13.9003 14.3778C13.8602 14.3283 13.8136 14.2832 13.7614 14.2467C13.7379 14.2302 13.7127 14.2037 13.6843 14.2081C13.6577 14.2122 13.625 14.2112 13.6071 14.2312C13.3511 14.5174 13.6733 14.9354 14.0082 14.8098" fill="none" fill-rule="evenodd" opacity="1" stroke="#000000" stroke-linecap="round" stroke-linejoin="round" stroke-width="0.2"/>
<path d="M14.3708 14.3161C14.2784 14.4085 14.2736 14.6196 14.2474 14.7403C14.2396 14.7759 14.1994 14.8646 14.2319 14.8483C14.285 14.8218 14.5961 13.66 14.6793 14.1387C14.693 14.2172 14.6793 14.3127 14.6793 14.3932" fill="none" fill-rule="evenodd" opacity="1" stroke="#000000" stroke-linecap="round" stroke-linejoin="round" stroke-width="0.2"/>
<path d="M15.0882 14.2004C14.9225 14.0899 14.7594 14.3781 14.8722 14.5012C14.9624 14.5997 15.1325 14.5033 15.2347 14.5629C15.3076 14.6055 14.7626 14.8915 14.6099 14.8406" fill="none" fill-rule="evenodd" opacity="1" stroke="#000000" stroke-linecap="round" stroke-linejoin="round" stroke-width="0.2"/>
<path d="M15.7384 13.5424C15.7126 13.5812 15.654 14.732 15.7614 14.3563" fill="none" fill-rule="evenodd" opacity="1" stroke="#000000" stroke-linecap="round" stroke-linejoin="round" stroke-width="0.1"/>
<path d="M15.7155 15.1013L15.6811 15.1013L15.7155 15.1128L15.7614 15.1243L15.7614 15.1243" fill="none" fill-rule="evenodd" opacity="1" stroke="#000000" stroke-linecap="round" stroke-linejoin="round" stroke-width="0.1"/>
<path d="M3.95941 11.096C3.96467 11.0828 3.96994 11.0696 3.97521 11.0564" fill="none" fill-rule="evenodd" opacity="1" stroke="#000000" stroke-linecap="round" stroke-linejoin="round" stroke-width="0.2"/>
<path d="M2.43159 11.1974C2.37396 10.9592 1.43453 10.5038 1.31738 10.9001C1.23021 11.1951 1.50323 11.5733 1.78938 11.6426C1.89732 11.6687 2.08656 11.6939 2.19207 11.6468C2.21168 11.6381 2.36862 11.4959 2.34999 11.6061" fill="none" fill-rule="evenodd" opacity="1" stroke="#000000" stroke-linecap="round" stroke-linejoin="round" stroke-width="0.2"/>
<path d="M3.19043 11.479C3.18251 11.4715 3.26125 11.4042 3.27527 11.3933C3.4515 11.256 3.61939 11.0567 3.86076 11.035C3.8799 11.0332 3.89102 11.0402 3.8892 11.059" fill="none" fill-rule="evenodd" opacity="1" stroke="#000000" stroke-linecap="round" stroke-linejoin="round" stroke-width="0.2"/>
<path d="M3.61185 11.6169C3.59198 11.5927 3.55367 11.8607 3.65485 11.8491C3.75722 11.8373 3.82485 11.5692 3.71454 11.5424C3.63135 11.5221 3.55493 11.6702 3.61709 11.7176C3.69189 11.7745 3.70669 11.5977 3.66325 11.6076C3.62615 11.6161 3.63659 11.7723 3.68643 11.7756C3.72773 11.7783 3.72637 11.6435 3.68982 11.6347C3.62153 11.6181 3.60997 11.9242 3.70408 11.797" fill="none" fill-rule="evenodd" opacity="1" stroke="#000000" stroke-linecap="round" stroke-linejoin="round" stroke-width="0.2"/>
<path d="M4.09375 11.4688C4.0723 11.5396 4.13339 11.5157 4.09375 11.5312C4.0475 11.5494 4.15119 11.6398 4.21875 11.6875C4.18337 11.6856 4.20443 11.6249 4.1875 11.5625C4.18056 11.5538 4.19485 11.5376 4.1875 11.5312C4.17598 11.5225 4.19616 11.5156 4.1875 11.5C4.18238 11.4979 4.16122 11.5001 4.15625 11.5C4.15894 11.4723 4.10059 11.4462 4.09375 11.4688Z" fill="none" fill-rule="evenodd" opacity="1" stroke="#000000" stroke-linecap="round" stroke-linejoin="round" stroke-width="0.2"/>
<path d="M3.84371 12.0173C3.78646 12.0034 3.46028 12.0907 3.60105 12.1926C3.73967 12.293 4.39256 12.1599 4.37359 11.9723C4.35993 11.8373 3.78669 12.0196 3.78263 12.0287" fill="none" fill-rule="evenodd" opacity="1" stroke="#000000" stroke-linecap="round" stroke-linejoin="round" stroke-width="0.2"/>
<path d="M4.081 12.0521C4.02103 12.0375 3.94149 12.1092 4.06587 12.0861C4.09165 12.0814 4.27467 11.9831 4.26318 11.9798C4.19466 11.96 4.06485 12.0756 4.01538 12.1105C3.99473 12.125 3.93633 12.1675 3.96131 12.1636C4.0046 12.1569 4.27606 12.0456 4.24997 11.9777C4.22524 11.9134 4.03239 12.0763 4.0115 12.0935C3.98862 12.1123 3.92371 12.1653 3.95294 12.1604C3.98601 12.1549 4.03511 12.1228 4.0582 12.1083C4.06113 12.1064 4.24648 11.9746 4.17553 11.9642C4.12643 11.957 3.9444 12.1333 3.97528 12.1579C4.01692 12.1909 4.1861 12.0568 4.21804 12.0386C4.25508 12.0174 4.36985 11.9799 4.32779 11.9726C4.28188 11.9648 3.98194 12.0733 4.03767 12.141C4.08007 12.1925 4.24 12.0799 4.26454 12.0636C4.2921 12.0453 4.36806 11.9978 4.3352 11.9939C4.26017 11.985 4.15437 12.0484 4.09008 12.0806C3.86967 12.1912 4.11719 12.1317 4.13876 12.0261C4.14447 11.9982 3.80007 12.1447 3.83361 12.1623C3.8625 12.1775 4.01491 12.1149 3.98638 12.084C3.89412 11.9838 3.73255 12.2005 3.73284 12.2007C3.76846 12.2183 4.03891 12.0747 4.02815 12.0438C4.00398 11.9746 3.71996 12.1236 3.7461 12.1696C3.77184 12.2149 3.9913 12.0689 3.96132 12.0413C3.89591 11.9812 3.66217 12.1011 3.64352 12.1778C3.63547 12.2109 3.80514 12.1218 3.73542 12.1007C3.69634 12.0889 3.60634 12.1743 3.58819 12.2032" fill="none" fill-rule="evenodd" opacity="1" stroke="#000000" stroke-linecap="round" stroke-linejoin="round" stroke-width="0.2"/>
<path d="M3.04251 12.346C2.9415 12.46 3.54707 12.8744 3.72228 12.8554C4.04088 12.8208 4.54849 12.4108 4.69686 12.1378C4.83895 11.8763 4.50709 11.1603 4.2543 11.0289C4.17365 10.987 4.07125 11.0353 3.98478 11.0091" fill="none" fill-rule="evenodd" opacity="1" stroke="#000000" stroke-linecap="round" stroke-linejoin="round" stroke-width="0.2"/>
<path d="M4.22221 11.6452C4.22101 11.6501 4.27273 11.5192 4.16347 11.4778C4.15678 11.4752 4.15667 11.4666 4.15717 11.4614" fill="none" fill-rule="evenodd" opacity="1" stroke="#000000" stroke-linecap="round" stroke-linejoin="round" stroke-width="0.2"/>
<path d="M4.2605 11.5676C4.26822 11.5359 4.2517 11.6863 4.23094 11.661" fill="none" fill-rule="evenodd" opacity="1" stroke="#000000" stroke-linecap="round" stroke-linejoin="round" stroke-width="0.2"/>
<path d="M4.27637 11.5424C4.34941 11.5539 4.1581 11.3693 4.09731 11.4114C3.99074 11.4852 4.11392 11.7053 4.20087 11.7189C4.26615 11.7291 4.31736 11.629 4.29046 11.5761C4.28506 11.5654 4.2477 11.5378 4.27637 11.5424Z" fill="none" fill-rule="evenodd" opacity="1" stroke="#000000" stroke-linecap="round" stroke-linejoin="round" stroke-width="0.2"/>
<path d="M11.0529 12.6415C11.0712 12.6272 11.0071 12.6517 10.9839 12.6528" fill="none" fill-rule="evenodd" opacity="1" stroke="#000000" stroke-linecap="round" stroke-linejoin="round" stroke-width="0.2"/>
<path d="M10.9358 12.6653C10.9821 12.6813 11.3804 12.4729 11.2511 12.7141" fill="none" fill-rule="evenodd" opacity="1" stroke="#000000" stroke-linecap="round" stroke-linejoin="round" stroke-width="0.2"/>
<path d="M11.0849 12.8729C11.139 12.8068 11.1873 12.7627 11.2299 12.6899" fill="none" fill-rule="evenodd" opacity="1" stroke="#000000" stroke-linecap="round" stroke-linejoin="round" stroke-width="0.2"/>
<path d="M11.1288 11.3273C11.1834 11.2794 11.1937 11.2761 11.2618 11.273" fill="none" fill-rule="evenodd" opacity="1" stroke="#000000" stroke-linecap="round" stroke-linejoin="round" stroke-width="0.2"/>
<path d="M13.3052 13.1826C13.3931 13.1115 13.3728 13.0123 13.3564 12.9111" fill="none" fill-rule="evenodd" opacity="1" stroke="#000000" stroke-linecap="round" stroke-linejoin="round" stroke-width="0.2"/>
<path d="M12.6542 14.323C12.7341 14.323 12.9375 14.3024 12.9703 14.3897" fill="none" fill-rule="evenodd" opacity="1" stroke="#000000" stroke-linecap="round" stroke-linejoin="round" stroke-width="0.2"/>
<path d="M14.2181 12.0228C14.145 12.2935 14.1897 12.098 14.155 12.6211" fill="none" fill-rule="evenodd" opacity="1" stroke="#000000" stroke-linecap="round" stroke-linejoin="round" stroke-width="0.2"/>
</g>
</svg>
